<svg width="500" height="110" viewBox="0 0 500 110" fill="none" xmlns="http://www.w3.org/2000/svg">
<g filter="url(#filter0_b_620_2)">
<path d="M338.018 87.7705H339.471V98.1299L339.346 99.7705H338.018V87.7705ZM345.182 95.4736V95.6377C345.182 96.2523 345.109 96.8226 344.963 97.3486C344.817 97.8695 344.604 98.3226 344.323 98.708C344.041 99.0934 343.698 99.3929 343.291 99.6064C342.885 99.82 342.419 99.9268 341.893 99.9268C341.356 99.9268 340.885 99.8356 340.479 99.6533C340.078 99.4658 339.739 99.1976 339.463 98.8486C339.187 98.4997 338.966 98.0778 338.799 97.583C338.638 97.0882 338.526 96.5309 338.463 95.9111V95.1924C338.526 94.5674 338.638 94.0075 338.799 93.5127C338.966 93.0179 339.187 92.596 339.463 92.2471C339.739 91.8929 340.078 91.6247 340.479 91.4424C340.88 91.2549 341.346 91.1611 341.877 91.1611C342.408 91.1611 342.88 91.2653 343.291 91.4736C343.703 91.6768 344.046 91.9684 344.323 92.3486C344.604 92.7288 344.817 93.1846 344.963 93.7158C345.109 94.2419 345.182 94.8278 345.182 95.4736ZM343.729 95.6377V95.4736C343.729 95.0518 343.69 94.6559 343.612 94.2861C343.533 93.9111 343.408 93.583 343.237 93.3018C343.065 93.0153 342.838 92.7913 342.557 92.6299C342.276 92.4632 341.929 92.3799 341.518 92.3799C341.153 92.3799 340.836 92.4424 340.565 92.5674C340.299 92.6924 340.073 92.8617 339.885 93.0752C339.698 93.2835 339.544 93.5231 339.424 93.7939C339.309 94.0596 339.224 94.3356 339.166 94.6221V96.5049C339.25 96.8695 339.385 97.221 339.573 97.5596C339.765 97.8929 340.02 98.1663 340.338 98.3799C340.661 98.5934 341.059 98.7002 341.533 98.7002C341.924 98.7002 342.257 98.6221 342.533 98.4658C342.815 98.3044 343.041 98.083 343.213 97.8018C343.39 97.5205 343.52 97.195 343.604 96.8252C343.687 96.4554 343.729 96.0596 343.729 95.6377ZM350.518 99.9268C349.929 99.9268 349.395 99.8278 348.916 99.6299C348.442 99.4268 348.033 99.1429 347.69 98.7783C347.351 98.4137 347.091 97.9814 346.908 97.4814C346.726 96.9814 346.635 96.4346 346.635 95.8408V95.5127C346.635 94.8252 346.737 94.2132 346.94 93.6768C347.143 93.1351 347.419 92.6768 347.768 92.3018C348.117 91.9268 348.513 91.6429 348.955 91.4502C349.398 91.2575 349.856 91.1611 350.33 91.1611C350.934 91.1611 351.455 91.2653 351.893 91.4736C352.336 91.682 352.698 91.9736 352.979 92.3486C353.26 92.7184 353.468 93.1559 353.604 93.6611C353.739 94.1611 353.807 94.708 353.807 95.3018V95.9502H347.494V94.7705H352.362V94.6611C352.341 94.2861 352.263 93.9215 352.127 93.5674C351.997 93.2132 351.789 92.9215 351.502 92.6924C351.216 92.4632 350.825 92.3486 350.33 92.3486C350.002 92.3486 349.7 92.4189 349.424 92.5596C349.148 92.695 348.911 92.8981 348.713 93.1689C348.515 93.4398 348.362 93.7705 348.252 94.1611C348.143 94.5518 348.088 95.0023 348.088 95.5127V95.8408C348.088 96.2419 348.143 96.6195 348.252 96.9736C348.367 97.3226 348.531 97.6299 348.744 97.8955C348.963 98.1611 349.226 98.3695 349.533 98.5205C349.846 98.6715 350.2 98.7471 350.596 98.7471C351.106 98.7471 351.539 98.6429 351.893 98.4346C352.247 98.2262 352.557 97.9476 352.823 97.5986L353.698 98.2939C353.515 98.57 353.283 98.833 353.002 99.083C352.721 99.333 352.375 99.5361 351.963 99.6924C351.557 99.8486 351.075 99.9268 350.518 99.9268ZM360.908 87.7705V99.7705H359.463V87.7705H360.908ZM360.565 95.2236L359.963 95.2002C359.968 94.6221 360.054 94.0882 360.221 93.5986C360.388 93.1038 360.622 92.6742 360.924 92.3096C361.226 91.945 361.586 91.6637 362.002 91.4658C362.424 91.2627 362.89 91.1611 363.401 91.1611C363.817 91.1611 364.192 91.2184 364.526 91.333C364.859 91.4424 365.143 91.6195 365.377 91.8643C365.617 92.109 365.799 92.4268 365.924 92.8174C366.049 93.2028 366.112 93.6742 366.112 94.2314V99.7705H364.658V94.2158C364.658 93.7731 364.593 93.4189 364.463 93.1533C364.333 92.8825 364.143 92.6872 363.893 92.5674C363.643 92.4424 363.336 92.3799 362.971 92.3799C362.612 92.3799 362.283 92.4554 361.987 92.6064C361.695 92.7575 361.442 92.9658 361.229 93.2314C361.02 93.4971 360.856 93.8018 360.737 94.1455C360.622 94.484 360.565 94.8434 360.565 95.2236ZM367.893 95.6377V95.458C367.893 94.8486 367.981 94.2835 368.158 93.7627C368.336 93.2367 368.591 92.7809 368.924 92.3955C369.257 92.0049 369.661 91.7028 370.135 91.4893C370.609 91.2705 371.14 91.1611 371.729 91.1611C372.323 91.1611 372.856 91.2705 373.33 91.4893C373.809 91.7028 374.216 92.0049 374.549 92.3955C374.888 92.7809 375.145 93.2367 375.323 93.7627C375.5 94.2835 375.588 94.8486 375.588 95.458V95.6377C375.588 96.2471 375.5 96.8122 375.323 97.333C375.145 97.8538 374.888 98.3096 374.549 98.7002C374.216 99.0856 373.812 99.3877 373.338 99.6064C372.869 99.82 372.338 99.9268 371.744 99.9268C371.151 99.9268 370.617 99.82 370.143 99.6064C369.669 99.3877 369.263 99.0856 368.924 98.7002C368.591 98.3096 368.336 97.8538 368.158 97.333C367.981 96.8122 367.893 96.2471 367.893 95.6377ZM369.338 95.458V95.6377C369.338 96.0596 369.388 96.458 369.487 96.833C369.586 97.2028 369.734 97.5309 369.932 97.8174C370.135 98.1038 370.388 98.3304 370.69 98.4971C370.992 98.6585 371.343 98.7393 371.744 98.7393C372.14 98.7393 372.487 98.6585 372.783 98.4971C373.086 98.3304 373.336 98.1038 373.533 97.8174C373.731 97.5309 373.88 97.2028 373.979 96.833C374.083 96.458 374.135 96.0596 374.135 95.6377V95.458C374.135 95.0413 374.083 94.6481 373.979 94.2783C373.88 93.9033 373.729 93.5726 373.526 93.2861C373.328 92.9945 373.078 92.7653 372.776 92.5986C372.479 92.432 372.13 92.3486 371.729 92.3486C371.333 92.3486 370.984 92.432 370.682 92.5986C370.385 92.7653 370.135 92.9945 369.932 93.2861C369.734 93.5726 369.586 93.9033 369.487 94.2783C369.388 94.6481 369.338 95.0413 369.338 95.458ZM378.846 92.9424V103.021H377.393V91.3174H378.721L378.846 92.9424ZM384.541 95.4736V95.6377C384.541 96.2523 384.468 96.8226 384.323 97.3486C384.177 97.8695 383.963 98.3226 383.682 98.708C383.406 99.0934 383.065 99.3929 382.658 99.6064C382.252 99.82 381.786 99.9268 381.26 99.9268C380.724 99.9268 380.25 99.8382 379.838 99.6611C379.427 99.484 379.078 99.2262 378.791 98.8877C378.505 98.5492 378.276 98.1429 378.104 97.6689C377.937 97.195 377.823 96.6611 377.76 96.0674V95.1924C377.823 94.5674 377.94 94.0075 378.112 93.5127C378.283 93.0179 378.51 92.596 378.791 92.2471C379.078 91.8929 379.424 91.6247 379.83 91.4424C380.237 91.2549 380.705 91.1611 381.237 91.1611C381.768 91.1611 382.239 91.2653 382.651 91.4736C383.062 91.6768 383.408 91.9684 383.69 92.3486C383.971 92.7288 384.182 93.1846 384.323 93.7158C384.468 94.2419 384.541 94.8278 384.541 95.4736ZM383.088 95.6377V95.4736C383.088 95.0518 383.044 94.6559 382.955 94.2861C382.867 93.9111 382.729 93.583 382.541 93.3018C382.359 93.0153 382.125 92.7913 381.838 92.6299C381.552 92.4632 381.211 92.3799 380.815 92.3799C380.45 92.3799 380.132 92.4424 379.862 92.5674C379.596 92.6924 379.369 92.8617 379.182 93.0752C378.994 93.2835 378.841 93.5231 378.721 93.7939C378.606 94.0596 378.52 94.3356 378.463 94.6221V96.6455C378.567 97.0101 378.713 97.3538 378.901 97.6768C379.088 97.9945 379.338 98.2523 379.651 98.4502C379.963 98.6429 380.356 98.7393 380.83 98.7393C381.221 98.7393 381.557 98.6585 381.838 98.4971C382.125 98.3304 382.359 98.1038 382.541 97.8174C382.729 97.5309 382.867 97.2028 382.955 96.833C383.044 96.458 383.088 96.0596 383.088 95.6377ZM389.893 99.9268C389.304 99.9268 388.77 99.8278 388.291 99.6299C387.817 99.4268 387.408 99.1429 387.065 98.7783C386.726 98.4137 386.466 97.9814 386.283 97.4814C386.101 96.9814 386.01 96.4346 386.01 95.8408V95.5127C386.01 94.8252 386.112 94.2132 386.315 93.6768C386.518 93.1351 386.794 92.6768 387.143 92.3018C387.492 91.9268 387.888 91.6429 388.33 91.4502C388.773 91.2575 389.231 91.1611 389.705 91.1611C390.309 91.1611 390.83 91.2653 391.268 91.4736C391.711 91.682 392.073 91.9736 392.354 92.3486C392.635 92.7184 392.843 93.1559 392.979 93.6611C393.114 94.1611 393.182 94.708 393.182 95.3018V95.9502H386.869V94.7705H391.737V94.6611C391.716 94.2861 391.638 93.9215 391.502 93.5674C391.372 93.2132 391.164 92.9215 390.877 92.6924C390.591 92.4632 390.2 92.3486 389.705 92.3486C389.377 92.3486 389.075 92.4189 388.799 92.5596C388.523 92.695 388.286 92.8981 388.088 93.1689C387.89 93.4398 387.737 93.7705 387.627 94.1611C387.518 94.5518 387.463 95.0023 387.463 95.5127V95.8408C387.463 96.2419 387.518 96.6195 387.627 96.9736C387.742 97.3226 387.906 97.6299 388.119 97.8955C388.338 98.1611 388.601 98.3695 388.908 98.5205C389.221 98.6715 389.575 98.7471 389.971 98.7471C390.481 98.7471 390.914 98.6429 391.268 98.4346C391.622 98.2262 391.932 97.9476 392.198 97.5986L393.073 98.2939C392.89 98.57 392.658 98.833 392.377 99.083C392.096 99.333 391.75 99.5361 391.338 99.6924C390.932 99.8486 390.45 99.9268 389.893 99.9268ZM396.182 98.0518V99.2158C396.182 99.6898 396.062 100.19 395.823 100.716C395.583 101.247 395.247 101.69 394.815 102.044L393.994 101.474C394.161 101.244 394.302 101.01 394.416 100.771C394.531 100.536 394.617 100.291 394.674 100.036C394.737 99.7861 394.768 99.5205 394.768 99.2393V98.0518H396.182ZM403.924 99.7705H402.479V90.583C402.479 89.9424 402.604 89.4007 402.854 88.958C403.104 88.5153 403.461 88.1794 403.924 87.9502C404.388 87.721 404.937 87.6064 405.573 87.6064C405.948 87.6064 406.315 87.6533 406.674 87.7471C407.033 87.8356 407.403 87.9476 407.783 88.083L407.541 89.3018C407.302 89.208 407.023 89.1195 406.705 89.0361C406.393 88.9476 406.049 88.9033 405.674 88.9033C405.054 88.9033 404.606 89.0439 404.33 89.3252C404.059 89.6012 403.924 90.0205 403.924 90.583V99.7705ZM405.651 91.3174V92.4268H401.143V91.3174H405.651ZM408.494 91.3174V99.7705H407.049V91.3174H408.494ZM412.315 93.1221V99.7705H410.869V91.3174H412.237L412.315 93.1221ZM411.971 95.2236L411.369 95.2002C411.375 94.6221 411.461 94.0882 411.627 93.5986C411.794 93.1038 412.028 92.6742 412.33 92.3096C412.632 91.945 412.992 91.6637 413.408 91.4658C413.83 91.2627 414.296 91.1611 414.807 91.1611C415.224 91.1611 415.599 91.2184 415.932 91.333C416.265 91.4424 416.549 91.6195 416.783 91.8643C417.023 92.109 417.205 92.4268 417.33 92.8174C417.455 93.2028 417.518 93.6742 417.518 94.2314V99.7705H416.065V94.2158C416.065 93.7731 416 93.4189 415.869 93.1533C415.739 92.8825 415.549 92.6872 415.299 92.5674C415.049 92.4424 414.742 92.3799 414.377 92.3799C414.018 92.3799 413.69 92.4554 413.393 92.6064C413.101 92.7575 412.849 92.9658 412.635 93.2314C412.427 93.4971 412.263 93.8018 412.143 94.1455C412.028 94.484 411.971 94.8434 411.971 95.2236ZM425.041 98.1299V87.7705H426.494V99.7705H425.166L425.041 98.1299ZM419.354 95.6377V95.4736C419.354 94.8278 419.432 94.2419 419.588 93.7158C419.75 93.1846 419.976 92.7288 420.268 92.3486C420.565 91.9684 420.916 91.6768 421.323 91.4736C421.734 91.2653 422.192 91.1611 422.698 91.1611C423.229 91.1611 423.692 91.2549 424.088 91.4424C424.489 91.6247 424.828 91.8929 425.104 92.2471C425.385 92.596 425.606 93.0179 425.768 93.5127C425.929 94.0075 426.041 94.5674 426.104 95.1924V95.9111C426.046 96.5309 425.934 97.0882 425.768 97.583C425.606 98.0778 425.385 98.4997 425.104 98.8486C424.828 99.1976 424.489 99.4658 424.088 99.6533C423.687 99.8356 423.218 99.9268 422.682 99.9268C422.187 99.9268 421.734 99.82 421.323 99.6064C420.916 99.3929 420.565 99.0934 420.268 98.708C419.976 98.3226 419.75 97.8695 419.588 97.3486C419.432 96.8226 419.354 96.2523 419.354 95.6377ZM420.807 95.4736V95.6377C420.807 96.0596 420.849 96.4554 420.932 96.8252C421.02 97.195 421.156 97.5205 421.338 97.8018C421.52 98.083 421.752 98.3044 422.033 98.4658C422.315 98.6221 422.651 98.7002 423.041 98.7002C423.52 98.7002 423.914 98.5986 424.221 98.3955C424.533 98.1924 424.783 97.9242 424.971 97.5908C425.158 97.2575 425.304 96.8955 425.408 96.5049V94.6221C425.346 94.3356 425.255 94.0596 425.135 93.7939C425.02 93.5231 424.869 93.2835 424.682 93.0752C424.5 92.8617 424.273 92.6924 424.002 92.5674C423.737 92.4424 423.421 92.3799 423.057 92.3799C422.661 92.3799 422.32 92.4632 422.033 92.6299C421.752 92.7913 421.52 93.0153 421.338 93.3018C421.156 93.583 421.02 93.9111 420.932 94.2861C420.849 94.6559 420.807 95.0518 420.807 95.4736ZM434.158 87.7705V99.7705H432.713V87.7705H434.158ZM433.815 95.2236L433.213 95.2002C433.218 94.6221 433.304 94.0882 433.471 93.5986C433.638 93.1038 433.872 92.6742 434.174 92.3096C434.476 91.945 434.836 91.6637 435.252 91.4658C435.674 91.2627 436.14 91.1611 436.651 91.1611C437.067 91.1611 437.442 91.2184 437.776 91.333C438.109 91.4424 438.393 91.6195 438.627 91.8643C438.867 92.109 439.049 92.4268 439.174 92.8174C439.299 93.2028 439.362 93.6742 439.362 94.2314V99.7705H437.908V94.2158C437.908 93.7731 437.843 93.4189 437.713 93.1533C437.583 92.8825 437.393 92.6872 437.143 92.5674C436.893 92.4424 436.586 92.3799 436.221 92.3799C435.862 92.3799 435.533 92.4554 435.237 92.6064C434.945 92.7575 434.692 92.9658 434.479 93.2314C434.27 93.4971 434.106 93.8018 433.987 94.1455C433.872 94.484 433.815 94.8434 433.815 95.2236ZM441.143 95.6377V95.458C441.143 94.8486 441.231 94.2835 441.408 93.7627C441.586 93.2367 441.841 92.7809 442.174 92.3955C442.507 92.0049 442.911 91.7028 443.385 91.4893C443.859 91.2705 444.39 91.1611 444.979 91.1611C445.573 91.1611 446.106 91.2705 446.58 91.4893C447.059 91.7028 447.466 92.0049 447.799 92.3955C448.138 92.7809 448.395 93.2367 448.573 93.7627C448.75 94.2835 448.838 94.8486 448.838 95.458V95.6377C448.838 96.2471 448.75 96.8122 448.573 97.333C448.395 97.8538 448.138 98.3096 447.799 98.7002C447.466 99.0856 447.062 99.3877 446.588 99.6064C446.119 99.82 445.588 99.9268 444.994 99.9268C444.401 99.9268 443.867 99.82 443.393 99.6064C442.919 99.3877 442.513 99.0856 442.174 98.7002C441.841 98.3096 441.586 97.8538 441.408 97.333C441.231 96.8122 441.143 96.2471 441.143 95.6377ZM442.588 95.458V95.6377C442.588 96.0596 442.638 96.458 442.737 96.833C442.836 97.2028 442.984 97.5309 443.182 97.8174C443.385 98.1038 443.638 98.3304 443.94 98.4971C444.242 98.6585 444.593 98.7393 444.994 98.7393C445.39 98.7393 445.737 98.6585 446.033 98.4971C446.336 98.3304 446.586 98.1038 446.783 97.8174C446.981 97.5309 447.13 97.2028 447.229 96.833C447.333 96.458 447.385 96.0596 447.385 95.6377V95.458C447.385 95.0413 447.333 94.6481 447.229 94.2783C447.13 93.9033 446.979 93.5726 446.776 93.2861C446.578 92.9945 446.328 92.7653 446.026 92.5986C445.729 92.432 445.38 92.3486 444.979 92.3486C444.583 92.3486 444.234 92.432 443.932 92.5986C443.635 92.7653 443.385 92.9945 443.182 93.2861C442.984 93.5726 442.836 93.9033 442.737 94.2783C442.638 94.6481 442.588 95.0413 442.588 95.458ZM452.096 92.9424V103.021H450.643V91.3174H451.971L452.096 92.9424ZM457.791 95.4736V95.6377C457.791 96.2523 457.718 96.8226 457.573 97.3486C457.427 97.8695 457.213 98.3226 456.932 98.708C456.656 99.0934 456.315 99.3929 455.908 99.6064C455.502 99.82 455.036 99.9268 454.51 99.9268C453.974 99.9268 453.5 99.8382 453.088 99.6611C452.677 99.484 452.328 99.2262 452.041 98.8877C451.755 98.5492 451.526 98.1429 451.354 97.6689C451.187 97.195 451.073 96.6611 451.01 96.0674V95.1924C451.073 94.5674 451.19 94.0075 451.362 93.5127C451.533 93.0179 451.76 92.596 452.041 92.2471C452.328 91.8929 452.674 91.6247 453.08 91.4424C453.487 91.2549 453.955 91.1611 454.487 91.1611C455.018 91.1611 455.489 91.2653 455.901 91.4736C456.312 91.6768 456.658 91.9684 456.94 92.3486C457.221 92.7288 457.432 93.1846 457.573 93.7158C457.718 94.2419 457.791 94.8278 457.791 95.4736ZM456.338 95.6377V95.4736C456.338 95.0518 456.294 94.6559 456.205 94.2861C456.117 93.9111 455.979 93.583 455.791 93.3018C455.609 93.0153 455.375 92.7913 455.088 92.6299C454.802 92.4632 454.461 92.3799 454.065 92.3799C453.7 92.3799 453.382 92.4424 453.112 92.5674C452.846 92.6924 452.619 92.8617 452.432 93.0752C452.244 93.2835 452.091 93.5231 451.971 93.7939C451.856 94.0596 451.77 94.3356 451.713 94.6221V96.6455C451.817 97.0101 451.963 97.3538 452.151 97.6768C452.338 97.9945 452.588 98.2523 452.901 98.4502C453.213 98.6429 453.606 98.7393 454.08 98.7393C454.471 98.7393 454.807 98.6585 455.088 98.4971C455.375 98.3304 455.609 98.1038 455.791 97.8174C455.979 97.5309 456.117 97.2028 456.205 96.833C456.294 96.458 456.338 96.0596 456.338 95.6377ZM463.143 99.9268C462.554 99.9268 462.02 99.8278 461.541 99.6299C461.067 99.4268 460.658 99.1429 460.315 98.7783C459.976 98.4137 459.716 97.9814 459.533 97.4814C459.351 96.9814 459.26 96.4346 459.26 95.8408V95.5127C459.26 94.8252 459.362 94.2132 459.565 93.6768C459.768 93.1351 460.044 92.6768 460.393 92.3018C460.742 91.9268 461.138 91.6429 461.58 91.4502C462.023 91.2575 462.481 91.1611 462.955 91.1611C463.559 91.1611 464.08 91.2653 464.518 91.4736C464.961 91.682 465.323 91.9736 465.604 92.3486C465.885 92.7184 466.093 93.1559 466.229 93.6611C466.364 94.1611 466.432 94.708 466.432 95.3018V95.9502H460.119V94.7705H464.987V94.6611C464.966 94.2861 464.888 93.9215 464.752 93.5674C464.622 93.2132 464.414 92.9215 464.127 92.6924C463.841 92.4632 463.45 92.3486 462.955 92.3486C462.627 92.3486 462.325 92.4189 462.049 92.5596C461.773 92.695 461.536 92.8981 461.338 93.1689C461.14 93.4398 460.987 93.7705 460.877 94.1611C460.768 94.5518 460.713 95.0023 460.713 95.5127V95.8408C460.713 96.2419 460.768 96.6195 460.877 96.9736C460.992 97.3226 461.156 97.6299 461.369 97.8955C461.588 98.1611 461.851 98.3695 462.158 98.5205C462.471 98.6715 462.825 98.7471 463.221 98.7471C463.731 98.7471 464.164 98.6429 464.518 98.4346C464.872 98.2262 465.182 97.9476 465.448 97.5986L466.323 98.2939C466.14 98.57 465.908 98.833 465.627 99.083C465.346 99.333 465 99.5361 464.588 99.6924C464.182 99.8486 463.7 99.9268 463.143 99.9268Z" fill="white"/>
</g>
<path d="M42.7043 46.744C42.7043 50.3707 43.1523 53.5707 44.0483 56.344C44.9869 59.1173 46.2243 61.464 47.7603 63.384C49.2963 65.2613 51.0883 66.6907 53.1363 67.672C55.2269 68.6533 57.4243 69.144 59.7283 69.144C64.6349 69.144 68.4323 67.4587 71.1203 64.088C73.8509 60.7173 75.2163 55.6613 75.2163 48.92C75.2163 45.6347 74.8109 42.6693 74.0003 40.024C73.1896 37.336 72.0376 35.0533 70.5443 33.176C69.0936 31.256 67.3229 29.784 65.2323 28.76C63.1843 27.736 60.8803 27.224 58.3203 27.224C56.2723 27.224 54.2883 27.608 52.3683 28.376C50.4909 29.144 48.8269 30.3387 47.3763 31.96C45.9683 33.5387 44.8376 35.5653 43.9843 38.04C43.1309 40.472 42.7043 43.3733 42.7043 46.744ZM37.0083 48.792C37.0083 45.1653 37.6269 41.8587 38.8643 38.872C40.1443 35.8427 41.8296 33.24 43.9203 31.064C46.0536 28.888 48.5069 27.2027 51.2803 26.008C54.0963 24.8133 57.0616 24.216 60.1763 24.216C63.5469 24.216 66.5123 24.792 69.0723 25.944C71.6749 27.096 73.8509 28.696 75.6003 30.744C77.3496 32.792 78.6723 35.2027 79.5683 37.976C80.4643 40.7067 80.9123 43.672 80.9123 46.872C80.9123 50.4133 80.4003 53.72 79.3763 56.792C78.3523 59.864 76.8589 62.5307 74.8963 64.792C72.9336 67.0533 70.5229 68.8453 67.6643 70.168C64.8483 71.4907 61.6483 72.152 58.0643 72.152C55.2056 72.152 52.4963 71.6187 49.9363 70.552C47.4189 69.4853 45.2003 67.9493 43.2803 65.944C41.3603 63.896 39.8243 61.4427 38.6723 58.584C37.5629 55.6827 37.0083 52.4187 37.0083 48.792ZM127.396 70.808C127.14 71.0213 126.756 71.1707 126.244 71.256C125.732 71.384 125.284 71.448 124.9 71.448L95.2043 30.68C95.2469 34.008 95.2896 37.2933 95.3323 40.536C95.4176 43.7787 95.4816 47.0213 95.5243 50.264C95.6096 53.5067 95.6949 56.792 95.7803 60.12C95.9083 63.4053 96.0576 66.7973 96.2283 70.296C95.7589 70.6373 95.0549 70.9147 94.1163 71.128C93.1776 71.3413 92.2816 71.448 91.4283 71.448C91.5136 67.736 91.5989 64.1307 91.6843 60.632C91.7696 57.0907 91.8549 53.5067 91.9403 49.88C92.0256 46.2107 92.1109 42.4347 92.1963 38.552C92.2816 34.6267 92.3883 30.4453 92.5163 26.008C93.2416 25.6667 94.0523 25.3893 94.9483 25.176C95.8869 24.9627 96.8043 24.856 97.7003 24.856L124.516 61.976C124.431 55.6613 124.324 49.4533 124.196 43.352C124.111 37.2507 123.962 31.4907 123.748 26.072C124.474 25.6453 125.263 25.3467 126.116 25.176C127.012 24.9627 127.823 24.856 128.548 24.856C128.335 31.6827 128.143 38.9787 127.972 46.744C127.802 54.5093 127.61 62.5307 127.396 70.808ZM176.064 33.752C175.723 34.392 175.147 34.9893 174.336 35.544C173.526 36.0987 172.544 36.4613 171.392 36.632C171.179 35.608 170.816 34.5627 170.304 33.496C169.835 32.3867 169.131 31.384 168.192 30.488C167.296 29.592 166.144 28.8453 164.736 28.248C163.371 27.6507 161.686 27.352 159.68 27.352C157.888 27.352 156.096 27.7147 154.304 28.44C152.512 29.1227 150.891 30.232 149.44 31.768C147.99 33.304 146.795 35.3093 145.856 37.784C144.96 40.216 144.512 43.1813 144.512 46.68C144.512 50.136 144.982 53.208 145.92 55.896C146.859 58.584 148.139 60.8453 149.76 62.68C151.382 64.472 153.259 65.8373 155.392 66.776C157.568 67.7147 159.894 68.184 162.368 68.184C165.227 68.184 167.638 67.7147 169.6 66.776C171.606 65.7947 173.291 64.5147 174.656 62.936C174.912 63.0213 175.211 63.192 175.552 63.448C175.894 63.704 176.107 63.96 176.192 64.216C175.851 64.8133 175.296 65.56 174.528 66.456C173.76 67.352 172.715 68.2267 171.392 69.08C170.112 69.8907 168.491 70.5947 166.528 71.192C164.608 71.832 162.304 72.152 159.616 72.152C156.971 72.152 154.411 71.6827 151.936 70.744C149.462 69.7627 147.264 68.312 145.344 66.392C143.424 64.4293 141.888 61.9973 140.736 59.096C139.584 56.152 139.008 52.7387 139.008 48.856C139.008 45.4427 139.627 42.2427 140.864 39.256C142.102 36.2267 143.766 33.6027 145.856 31.384C147.99 29.1653 150.443 27.416 153.216 26.136C156.032 24.856 159.019 24.216 162.176 24.216C164.736 24.216 166.891 24.5787 168.64 25.304C170.432 26.0293 171.862 26.904 172.928 27.928C174.038 28.952 174.827 30.0187 175.296 31.128C175.808 32.1947 176.064 33.0693 176.064 33.752ZM188.579 46.744C188.579 50.3707 189.027 53.5707 189.923 56.344C190.862 59.1173 192.099 61.464 193.635 63.384C195.171 65.2613 196.963 66.6907 199.011 67.672C201.102 68.6533 203.299 69.144 205.603 69.144C210.51 69.144 214.307 67.4587 216.995 64.088C219.726 60.7173 221.091 55.6613 221.091 48.92C221.091 45.6347 220.686 42.6693 219.875 40.024C219.065 37.336 217.913 35.0533 216.419 33.176C214.969 31.256 213.198 29.784 211.107 28.76C209.059 27.736 206.755 27.224 204.195 27.224C202.147 27.224 200.163 27.608 198.243 28.376C196.366 29.144 194.702 30.3387 193.251 31.96C191.843 33.5387 190.713 35.5653 189.859 38.04C189.006 40.472 188.579 43.3733 188.579 46.744ZM182.883 48.792C182.883 45.1653 183.502 41.8587 184.739 38.872C186.019 35.8427 187.705 33.24 189.795 31.064C191.929 28.888 194.382 27.2027 197.155 26.008C199.971 24.8133 202.937 24.216 206.051 24.216C209.422 24.216 212.387 24.792 214.947 25.944C217.55 27.096 219.726 28.696 221.475 30.744C223.225 32.792 224.547 35.2027 225.443 37.976C226.339 40.7067 226.787 43.672 226.787 46.872C226.787 50.4133 226.275 53.72 225.251 56.792C224.227 59.864 222.734 62.5307 220.771 64.792C218.809 67.0533 216.398 68.8453 213.539 70.168C210.723 71.4907 207.523 72.152 203.939 72.152C201.081 72.152 198.371 71.6187 195.811 70.552C193.294 69.4853 191.075 67.9493 189.155 65.944C187.235 63.896 185.699 61.4427 184.547 58.584C183.438 55.6827 182.883 52.4187 182.883 48.792Z" fill="#70FE3E"/>
<path d="M260.727 51.032C260.727 47.4053 259.981 44.76 258.487 43.096C256.994 41.3893 254.882 40.536 252.151 40.536C251.17 40.536 250.189 40.728 249.207 41.112C248.269 41.4533 247.351 41.9227 246.455 42.52C245.602 43.1173 244.791 43.8213 244.023 44.632C243.255 45.4 242.573 46.2107 241.975 47.064V70.488C241.378 70.8293 240.589 71.064 239.607 71.192C238.669 71.3627 237.773 71.448 236.919 71.448V38.68C238.327 37.9547 239.906 37.592 241.655 37.592V43.928C242.21 43.2027 242.914 42.4347 243.767 41.624C244.663 40.7707 245.645 40.0027 246.711 39.32C247.821 38.6373 249.015 38.0827 250.295 37.656C251.618 37.1867 253.026 36.952 254.519 36.952C257.975 36.952 260.706 37.9973 262.711 40.088C264.759 42.1787 265.783 45.1653 265.783 49.048V70.488C265.186 70.8293 264.397 71.064 263.415 71.192C262.477 71.3627 261.581 71.448 260.727 71.448V51.032ZM280.235 54.488C280.363 56.792 280.769 58.8187 281.451 60.568C282.177 62.2747 283.094 63.704 284.203 64.856C285.313 66.008 286.593 66.8827 288.043 67.48C289.537 68.0347 291.115 68.312 292.779 68.312C294.87 68.312 296.662 68.0347 298.155 67.48C299.691 66.9253 301.078 66.0507 302.315 64.856C302.913 64.984 303.318 65.3893 303.531 66.072C303.233 66.5413 302.742 67.1173 302.059 67.8C301.419 68.4827 300.545 69.144 299.435 69.784C298.369 70.424 297.067 70.9573 295.531 71.384C294.038 71.8533 292.289 72.088 290.283 72.088C288.15 72.088 286.166 71.704 284.331 70.936C282.497 70.168 280.897 69.0587 279.531 67.608C278.166 66.1573 277.078 64.3653 276.267 62.232C275.499 60.0987 275.115 57.688 275.115 55C275.115 52.5253 275.542 50.2 276.395 48.024C277.249 45.8053 278.401 43.8853 279.851 42.264C281.345 40.6427 283.073 39.3627 285.035 38.424C287.041 37.4427 289.174 36.952 291.435 36.952C293.867 36.952 295.873 37.3573 297.451 38.168C299.03 38.9787 300.267 40.024 301.163 41.304C302.102 42.584 302.742 43.992 303.083 45.528C303.467 47.064 303.659 48.5573 303.659 50.008C303.318 50.52 302.849 50.968 302.251 51.352C301.697 51.736 301.078 52.0347 300.395 52.248L280.235 54.488ZM289.771 39.832C288.449 39.832 287.211 40.0667 286.059 40.536C284.907 41.0053 283.905 41.7307 283.051 42.712C282.198 43.6933 281.494 44.952 280.939 46.488C280.427 48.024 280.15 49.88 280.107 52.056L298.155 50.2C298.198 49.9867 298.219 49.7733 298.219 49.56C298.219 49.3467 298.219 49.1547 298.219 48.984C298.219 47.6613 298.049 46.4453 297.707 45.336C297.366 44.2267 296.833 43.2667 296.107 42.456C295.425 41.6453 294.55 41.0053 293.483 40.536C292.459 40.0667 291.222 39.832 289.771 39.832ZM338.966 44.504C338.71 44.9733 338.198 45.464 337.43 45.976C336.704 46.488 335.787 46.808 334.678 46.936C334.55 46.2107 334.294 45.4427 333.91 44.632C333.568 43.7787 333.056 43.0107 332.374 42.328C331.691 41.6027 330.838 41.0267 329.814 40.6C328.79 40.1307 327.552 39.896 326.102 39.896C324.907 39.896 323.691 40.1307 322.454 40.6C321.259 41.0693 320.171 41.8373 319.19 42.904C318.208 43.9707 317.398 45.336 316.758 47C316.16 48.664 315.862 50.6907 315.862 53.08C315.862 55.64 316.203 57.88 316.886 59.8C317.568 61.6773 318.486 63.256 319.638 64.536C320.79 65.7733 322.112 66.712 323.606 67.352C325.142 67.9493 326.742 68.248 328.406 68.248C330.582 68.248 332.416 67.928 333.91 67.288C335.446 66.6053 336.747 65.6453 337.814 64.408C338.07 64.4507 338.326 64.6 338.582 64.856C338.838 65.112 339.008 65.3467 339.094 65.56C338.752 66.1573 338.219 66.84 337.494 67.608C336.811 68.3333 335.936 69.016 334.87 69.656C333.803 70.296 332.566 70.8293 331.158 71.256C329.75 71.7253 328.15 71.96 326.358 71.96C324.224 71.96 322.198 71.5973 320.278 70.872C318.4 70.1467 316.736 69.0587 315.286 67.608C313.878 66.1573 312.747 64.3867 311.894 62.296C311.083 60.2053 310.678 57.7733 310.678 55C310.678 52.568 311.126 50.2853 312.022 48.152C312.918 45.976 314.134 44.0773 315.67 42.456C317.248 40.792 319.104 39.4907 321.238 38.552C323.371 37.5707 325.675 37.08 328.15 37.08C330.198 37.08 331.904 37.3787 333.27 37.976C334.635 38.5307 335.723 39.2133 336.534 40.024C337.387 40.792 338.006 41.6027 338.39 42.456C338.774 43.3093 338.966 43.992 338.966 44.504ZM343.627 40.216C343.968 39.7467 344.501 39.32 345.227 38.936C345.995 38.5093 346.827 38.296 347.723 38.296H349.771V29.08C350.453 28.5253 351.243 28.12 352.139 27.864C353.077 27.5653 353.973 27.416 354.827 27.416V38.296H367.371C367.328 39.0213 367.115 39.64 366.731 40.152C366.389 40.6213 365.941 40.856 365.387 40.856H354.827V61.848C354.827 63.2133 354.976 64.3227 355.275 65.176C355.616 65.9867 356.064 66.6267 356.619 67.096C357.173 67.5653 357.813 67.8853 358.539 68.056C359.264 68.2267 360.011 68.312 360.779 68.312C362.187 68.312 363.36 68.0347 364.299 67.48C365.237 66.9253 366.005 66.3493 366.603 65.752C367.2 65.9227 367.584 66.2853 367.755 66.84C367.541 67.1813 367.2 67.6293 366.731 68.184C366.261 68.7387 365.643 69.2933 364.875 69.848C364.107 70.36 363.189 70.808 362.123 71.192C361.056 71.576 359.861 71.768 358.539 71.768C357.344 71.768 356.213 71.6187 355.147 71.32C354.08 71.0213 353.141 70.5307 352.331 69.848C351.563 69.1653 350.944 68.248 350.475 67.096C350.005 65.944 349.771 64.5147 349.771 62.808V40.856H343.627V40.216ZM382.267 27.544C381.883 28.2267 381.286 28.952 380.475 29.72C379.665 30.4453 378.939 30.9573 378.299 31.256C377.659 30.9573 376.934 30.4453 376.123 29.72C375.313 28.952 374.694 28.2267 374.267 27.544C374.694 26.8187 375.313 26.072 376.123 25.304C376.934 24.536 377.659 23.9813 378.299 23.64C378.939 23.9813 379.665 24.536 380.475 25.304C381.329 26.072 381.926 26.8187 382.267 27.544ZM375.611 38.68C376.337 38.296 377.126 38.0187 377.979 37.848C378.875 37.6773 379.771 37.592 380.667 37.592V70.488C380.07 70.8293 379.281 71.064 378.299 71.192C377.361 71.3627 376.465 71.448 375.611 71.448V38.68ZM395.616 53.144C395.616 55.832 395.936 58.1787 396.576 60.184C397.259 62.1893 398.134 63.8747 399.2 65.24C400.31 66.5627 401.568 67.5653 402.976 68.248C404.427 68.9307 405.942 69.272 407.52 69.272C410.934 69.272 413.536 68.1413 415.328 65.88C417.12 63.576 418.016 60.12 418.016 55.512C418.016 53.2933 417.76 51.224 417.248 49.304C416.736 47.384 415.968 45.72 414.944 44.312C413.963 42.904 412.747 41.7947 411.296 40.984C409.846 40.1733 408.182 39.768 406.304 39.768C404.939 39.768 403.616 40.024 402.336 40.536C401.056 41.048 399.926 41.8587 398.944 42.968C397.963 44.0347 397.152 45.4213 396.512 47.128C395.915 48.792 395.616 50.7973 395.616 53.144ZM390.24 55.128C390.24 52.5253 390.71 50.1147 391.648 47.896C392.587 45.6347 393.846 43.7147 395.424 42.136C397.046 40.5147 398.923 39.256 401.056 38.36C403.232 37.4213 405.536 36.952 407.968 36.952C410.614 36.952 412.896 37.4 414.816 38.296C416.779 39.192 418.379 40.3867 419.616 41.88C420.896 43.3733 421.835 45.1227 422.432 47.128C423.072 49.1333 423.392 51.2453 423.392 53.464C423.392 56.0667 422.987 58.4987 422.176 60.76C421.366 63.0213 420.192 65.0053 418.656 66.712C417.163 68.376 415.328 69.6987 413.152 70.68C410.976 71.6613 408.502 72.152 405.728 72.152C403.68 72.152 401.718 71.768 399.84 71C397.963 70.232 396.299 69.1227 394.848 67.672C393.44 66.2213 392.31 64.4507 391.456 62.36C390.646 60.2267 390.24 57.816 390.24 55.128ZM456.54 51.032C456.54 47.4053 455.793 44.76 454.3 43.096C452.806 41.3893 450.694 40.536 447.964 40.536C446.982 40.536 446.001 40.728 445.02 41.112C444.081 41.4533 443.164 41.9227 442.268 42.52C441.414 43.1173 440.604 43.8213 439.836 44.632C439.068 45.4 438.385 46.2107 437.788 47.064V70.488C437.19 70.8293 436.401 71.064 435.42 71.192C434.481 71.3627 433.585 71.448 432.732 71.448V38.68C434.14 37.9547 435.718 37.592 437.468 37.592V43.928C438.022 43.2027 438.726 42.4347 439.58 41.624C440.476 40.7707 441.457 40.0027 442.524 39.32C443.633 38.6373 444.828 38.0827 446.108 37.656C447.43 37.1867 448.838 36.952 450.332 36.952C453.788 36.952 456.518 37.9973 458.524 40.088C460.572 42.1787 461.596 45.1653 461.596 49.048V70.488C460.998 70.8293 460.209 71.064 459.228 71.192C458.289 71.3627 457.393 71.448 456.54 71.448V51.032Z" fill="white"/>
<defs>
<filter id="filter0_b_620_2" x="328.018" y="77.6064" width="148.414" height="35.4141" filterUnits="userSpaceOnUse" color-interpolation-filters="sRGB">
<feFlood flood-opacity="0" result="BackgroundImageFix"/>
<feGaussianBlur in="BackgroundImageFix" stdDeviation="5"/>
<feComposite in2="SourceAlpha" operator="in" result="effect1_backgroundBlur_620_2"/>
<feBlend mode="normal" in="SourceGraphic" in2="effect1_backgroundBlur_620_2" result="shape"/>
</filter>
</defs>
</svg>
